<?xml version="1.0" encoding="UTF-8"?>
<svg width="23px" height="36px" viewBox="0 0 23 36" version="1.1" xmlns="http://www.w3.org/2000/svg" xmlns:xlink="http://www.w3.org/1999/xlink">
    <!-- Generator: Sketch 48.2 (47327) - http://www.bohemiancoding.com/sketch -->
    <title>Locked Icon</title>
    <desc>Created with Sketch.</desc>
    <defs></defs>
    <g id="Lock-Screen" stroke="none" stroke-width="1" fill="none" fill-rule="evenodd" transform="translate(-176.000000, -44.000000)">
        <path d="M181.5,60 L193.5,60 L193.5,52.852459 C193.5,49.5930736 190.813708,46.9508197 187.5,46.9508197 C184.186292,46.9508197 181.5,49.5930736 181.5,52.852459 L181.5,60 Z M196.5,60.0414792 C197.918857,60.2795183 199,61.5135019 199,63 L199,77 C199,78.6568542 197.656854,80 196,80 L179,80 C177.343146,80 176,78.6568542 176,77 L176,63 C176,61.5135019 177.081143,60.2795183 178.5,60.0414792 L178.5,52.852459 C178.5,47.9633809 182.529437,44 187.5,44 C192.470563,44 196.5,47.9633809 196.5,52.852459 L196.5,60.0414792 Z" id="Locked-Icon" fill="#FFFFFF"></path>
    </g>
</svg>